<svg width="115" height="59" viewBox="0 0 115 59" fill="none" xmlns="http://www.w3.org/2000/svg">
<rect x="17.0945" y="13.9737" width="8.27508" height="31.8144" fill="black"/>
<path fill-rule="evenodd" clip-rule="evenodd" d="M55.0799 13.9737V45.7881H47.8621L47.8302 24.3077L44.9515 45.7881H39.7874L36.7768 24.7702L36.7428 45.7881H29.5271V13.9737H40.2331C40.5166 15.9059 40.8431 18.166 41.2245 20.7522L42.4014 28.8302L44.3055 13.9737H55.0799Z" fill="black"/>
<path fill-rule="evenodd" clip-rule="evenodd" d="M65.773 19.3975V40.3642C66.952 40.3642 67.6792 40.1252 67.95 39.6439C68.2183 39.1642 68.3572 37.8627 68.3572 35.7389V23.3536C68.3572 21.9093 68.3105 20.9847 68.2183 20.5799C68.1265 20.1706 67.9217 19.8727 67.5977 19.6832C67.2765 19.4912 66.6685 19.3975 65.773 19.3975ZM57.5 13.9737H63.6793C67.6685 13.9737 70.3682 14.1571 71.7733 14.5234C73.1809 14.8917 74.2513 15.495 74.9825 16.3299C75.7138 17.1714 76.1722 18.1021 76.3557 19.1335C76.5413 20.1625 76.6331 22.1798 76.6331 25.1921V36.3357C76.6331 39.1925 76.4966 41.0993 76.2304 42.0624C75.9616 43.025 75.4946 43.7785 74.8248 44.3245C74.1575 44.8672 73.3345 45.247 72.3538 45.4659C71.3726 45.6808 69.8954 45.7881 67.9188 45.7881H57.5004V13.9737H57.5Z" fill="black"/>
<path fill-rule="evenodd" clip-rule="evenodd" d="M89.6494 27.1452C89.6494 25.8011 89.5622 24.9257 89.3893 24.5123C89.2164 24.101 88.8817 23.8943 88.3762 23.8943C87.8838 23.8943 87.5639 24.0756 87.4189 24.4313C87.2718 24.791 87.1993 25.6968 87.1993 27.1452V38.3506C87.1993 39.7479 87.2824 40.6409 87.4488 41.0326C87.6126 41.4267 87.9432 41.6187 88.4336 41.6187C88.937 41.6187 89.2652 41.419 89.4184 41.0134C89.572 40.6065 89.649 39.6353 89.649 38.0931V27.1452H89.6494ZM87.1993 13.9737V21.5467C87.858 20.7797 88.5897 20.2067 89.3955 19.8297C90.2074 19.4544 91.0861 19.2653 92.0328 19.2653C93.1221 19.2653 94.0672 19.436 94.8709 19.7745C95.6726 20.1174 96.2847 20.5947 96.705 21.2082C97.1249 21.8237 97.3789 22.427 97.4657 23.0147C97.5489 23.6029 97.5939 24.8573 97.5939 26.781V38.5167C97.5939 40.4281 97.4657 41.8508 97.206 42.7864C96.9524 43.7232 96.3465 44.5352 95.4002 45.2212C94.4514 45.9072 93.3273 46.2501 92.025 46.2501C91.089 46.2501 90.2168 46.0455 89.4061 45.6362C88.5942 45.2253 87.8519 44.6114 87.1845 43.7961L86.6704 45.7881H79.2568V13.9737H87.1993Z" fill="black"/>
</svg>
