<svg width="32" height="32" viewBox="0 0 32 32" fill="none" xmlns="http://www.w3.org/2000/svg">
<path fill-rule="evenodd" clip-rule="evenodd" d="M19.4538 19.7386H18.5504L18.2302 19.4298C19.3509 18.1262 20.0255 16.4338 20.0255 14.5928C20.0255 10.4876 16.6979 7.15997 12.5927 7.15997C8.48753 7.15997 5.15991 10.4876 5.15991 14.5928C5.15991 18.698 8.48753 22.0256 12.5927 22.0256C14.4338 22.0256 16.1262 21.3509 17.4298 20.2303L17.7385 20.5505V21.4539L23.4561 27.16L25.1599 25.4561L19.4538 19.7386ZM12.5927 19.7386C9.74539 19.7386 7.44693 17.4401 7.44693 14.5928C7.44693 11.7455 9.74539 9.44699 12.5927 9.44699C15.4401 9.44699 17.7385 11.7455 17.7385 14.5928C17.7385 17.4401 15.4401 19.7386 12.5927 19.7386Z" fill="black" fill-opacity="0.4"/>
</svg>
